<?xml version="1.0" encoding="UTF-8" standalone="no"?>
<!DOCTYPE svg PUBLIC "-//W3C//DTD SVG 1.1//EN"
 "http://www.w3.org/Graphics/SVG/1.1/DTD/svg11.dtd">
<!-- Generated by graphviz version 2.48.0 (20210717.2242)
 -->
<!-- Title: g Pages: 1 -->
<svg width="4250pt" height="410pt"
 viewBox="0.00 0.00 4249.71 409.74" xmlns="http://www.w3.org/2000/svg" xmlns:xlink="http://www.w3.org/1999/xlink">
<g id="graph0" class="graph" transform="scale(1 1) rotate(0) translate(4 405.74)">
<title>g</title>
<polygon fill="white" stroke="transparent" points="-4,4 -4,-405.74 4245.71,-405.74 4245.71,4 -4,4"/>
<!-- 0 -->
<g id="node1" class="node">
<title>0</title>
<ellipse fill="none" stroke="black" cx="887.36" cy="-374.87" rx="200.22" ry="26.74"/>
<text text-anchor="middle" x="887.36" y="-378.67" font-family="Times,serif" font-size="14.00">2021&#45;01&#45;01:吾輩《わがはい》は猫である。</text>
<text text-anchor="middle" x="887.36" y="-363.67" font-family="Times,serif" font-size="14.00">名前はまだ無い。</text>
</g>
<!-- 3 -->
<g id="node2" class="node">
<title>3</title>
<ellipse fill="none" stroke="black" cx="887.36" cy="-279" rx="239.36" ry="18"/>
<text text-anchor="middle" x="887.36" y="-275.3" font-family="Times,serif" font-size="14.00">2021&#45;01&#45;04:吾輩はここで始めて人間というものを見た。</text>
</g>
<!-- 0&#45;&gt;3 -->
<g id="edge1" class="edge">
<title>0&#45;&gt;3</title>
<path fill="none" stroke="black" stroke-width="2.67" d="M887.36,-347.97C887.36,-335.34 887.36,-320.14 887.36,-307.32"/>
<polygon fill="black" stroke="black" stroke-width="2.67" points="890.86,-307.22 887.36,-297.22 883.86,-307.22 890.86,-307.22"/>
<text text-anchor="middle" x="902.86" y="-318.8" font-family="Times,serif" font-size="14.00">0.333</text>
</g>
<!-- 4 -->
<g id="node5" class="node">
<title>4</title>
<ellipse fill="none" stroke="black" cx="452.36" cy="-192" rx="452.22" ry="18"/>
<text text-anchor="middle" x="452.36" y="-188.3" font-family="Times,serif" font-size="14.00">2021&#45;01&#45;05:しかもあとで聞くとそれは書生という人間中で一番｜獰悪《どうあく》な種族であったそうだ。</text>
</g>
<!-- 3&#45;&gt;4 -->
<g id="edge2" class="edge">
<title>3&#45;&gt;4</title>
<path fill="none" stroke="black" stroke-width="2.18" d="M805.79,-262.06C732.69,-247.78 625.39,-226.81 548.21,-211.73"/>
<polygon fill="black" stroke="black" stroke-width="2.18" points="548.49,-208.22 538,-209.74 547.15,-215.09 548.49,-208.22"/>
<text text-anchor="middle" x="710.86" y="-231.8" font-family="Times,serif" font-size="14.00">0.236</text>
</g>
<!-- 8 -->
<g id="node6" class="node">
<title>8</title>
<ellipse fill="none" stroke="black" cx="479.36" cy="-18" rx="471.42" ry="18"/>
<text text-anchor="middle" x="479.36" y="-14.3" font-family="Times,serif" font-size="14.00">2021&#45;01&#45;09:掌の上で少し落ちついて書生の顔を見たのがいわゆる人間というものの見始《みはじめ》であろう。</text>
</g>
<!-- 3&#45;&gt;8 -->
<g id="edge3" class="edge">
<title>3&#45;&gt;8</title>
<path fill="none" stroke="black" stroke-width="2.44" d="M935.38,-261.25C1018.2,-229.92 1173.06,-159.08 1108.36,-87 1084.67,-60.61 924.76,-43.54 772.12,-33.1"/>
<polygon fill="black" stroke="black" stroke-width="2.44" points="772.29,-29.6 762.08,-32.42 771.82,-36.59 772.29,-29.6"/>
<text text-anchor="middle" x="1134.86" y="-144.8" font-family="Times,serif" font-size="14.00">0.289</text>
</g>
<!-- 1 -->
<g id="node3" class="node">
<title>1</title>
<ellipse fill="none" stroke="black" cx="1372.36" cy="-374.87" rx="267.25" ry="18"/>
<text text-anchor="middle" x="1372.36" y="-371.17" font-family="Times,serif" font-size="14.00">2021&#45;01&#45;02:どこで生れたかとんと見当《けんとう》がつかぬ。</text>
</g>
<!-- 2 -->
<g id="node4" class="node">
<title>2</title>
<ellipse fill="none" stroke="black" cx="2044.36" cy="-374.87" rx="387.23" ry="18"/>
<text text-anchor="middle" x="2044.36" y="-371.17" font-family="Times,serif" font-size="14.00">2021&#45;01&#45;03:何でも薄暗いじめじめした所でニャーニャー泣いていた事だけは記憶している。</text>
</g>
<!-- 4&#45;&gt;8 -->
<g id="edge5" class="edge">
<title>4&#45;&gt;8</title>
<path fill="none" stroke="black" stroke-width="3.04" d="M361.35,-174.3C299.11,-158.63 233.23,-130.92 265.36,-87 281.91,-64.37 306.05,-49.09 332.21,-38.82"/>
<polygon fill="black" stroke="black" stroke-width="3.04" points="333.75,-41.98 341.93,-35.25 331.34,-35.41 333.75,-41.98"/>
<text text-anchor="middle" x="280.86" y="-101.3" font-family="Times,serif" font-size="14.00">0.408</text>
</g>
<!-- 5 -->
<g id="node7" class="node">
<title>5</title>
<ellipse fill="none" stroke="black" cx="702.36" cy="-105" rx="397.23" ry="18"/>
<text text-anchor="middle" x="702.36" y="-101.3" font-family="Times,serif" font-size="14.00">2021&#45;01&#45;06:この書生というのは時々我々を捕《つかま》えて煮《に》て食うという話である。</text>
</g>
<!-- 4&#45;&gt;5 -->
<g id="edge4" class="edge">
<title>4&#45;&gt;5</title>
<path fill="none" stroke="black" stroke-width="2.02" d="M502.05,-174.11C542.69,-160.29 600.27,-140.71 643.27,-126.09"/>
<polygon fill="black" stroke="black" stroke-width="2.02" points="644.42,-129.4 652.76,-122.86 642.17,-122.77 644.42,-129.4"/>
<text text-anchor="middle" x="607.86" y="-144.8" font-family="Times,serif" font-size="14.00">0.204</text>
</g>
<!-- 5&#45;&gt;8 -->
<g id="edge6" class="edge">
<title>5&#45;&gt;8</title>
<path fill="none" stroke="black" stroke-width="2.25" d="M658.04,-87.11C622.2,-73.45 571.62,-54.17 533.41,-39.6"/>
<polygon fill="black" stroke="black" stroke-width="2.25" points="534.57,-36.3 523.98,-36.01 532.08,-42.84 534.57,-36.3"/>
<text text-anchor="middle" x="616.86" y="-57.8" font-family="Times,serif" font-size="14.00">0.25</text>
</g>
<!-- 6 -->
<g id="node8" class="node">
<title>6</title>
<ellipse fill="none" stroke="black" cx="2819.36" cy="-374.87" rx="369.33" ry="18"/>
<text text-anchor="middle" x="2819.36" y="-371.17" font-family="Times,serif" font-size="14.00">2021&#45;01&#45;07:しかしその当時は何という考もなかったから別段恐しいとも思わなかった。</text>
</g>
<!-- 7 -->
<g id="node9" class="node">
<title>7</title>
<ellipse fill="none" stroke="black" cx="3724.36" cy="-374.87" rx="517.21" ry="18"/>
<text text-anchor="middle" x="3724.36" y="-371.17" font-family="Times,serif" font-size="14.00">2021&#45;01&#45;08:ただ彼の掌《てのひら》に載せられてスーと持ち上げられた時何だかフワフワした感じがあったばかりである。</text>
</g>
</g>
</svg>
